<svg viewBox="-50 -50 100 100">
  <path d="M0 0L4.00388824415515 6.666666666666666L4.771967995487035 13.333333333333332L2.2618587580143013 20L3.1334639525739227 26.666666666666664L1.6126826433353658 33.333333333333336L0 40L-1.6126826433353658 33.333333333333336,-3.1334639525739227 26.666666666666664,-2.2618587580143013 20,-4.771967995487035 13.333333333333332,-4.00388824415515 6.666666666666666Z" transform="rotate(0)"/>
  <path d="M0 0L4.00388824415515 6.666666666666666L4.771967995487035 13.333333333333332L2.2618587580143013 20L3.1334639525739227 26.666666666666664L1.6126826433353658 33.333333333333336L0 40L-1.6126826433353658 33.333333333333336,-3.1334639525739227 26.666666666666664,-2.2618587580143013 20,-4.771967995487035 13.333333333333332,-4.00388824415515 6.666666666666666Z" transform="rotate(22.5)"/>
  <path d="M0 0L4.00388824415515 6.666666666666666L4.771967995487035 13.333333333333332L2.2618587580143013 20L3.1334639525739227 26.666666666666664L1.6126826433353658 33.333333333333336L0 40L-1.6126826433353658 33.333333333333336,-3.1334639525739227 26.666666666666664,-2.2618587580143013 20,-4.771967995487035 13.333333333333332,-4.00388824415515 6.666666666666666Z" transform="rotate(45)"/>
  <path d="M0 0L4.00388824415515 6.666666666666666L4.771967995487035 13.333333333333332L2.2618587580143013 20L3.1334639525739227 26.666666666666664L1.6126826433353658 33.333333333333336L0 40L-1.6126826433353658 33.333333333333336,-3.1334639525739227 26.666666666666664,-2.2618587580143013 20,-4.771967995487035 13.333333333333332,-4.00388824415515 6.666666666666666Z" transform="rotate(67.5)"/>
  <path d="M0 0L4.00388824415515 6.666666666666666L4.771967995487035 13.333333333333332L2.2618587580143013 20L3.1334639525739227 26.666666666666664L1.6126826433353658 33.333333333333336L0 40L-1.6126826433353658 33.333333333333336,-3.1334639525739227 26.666666666666664,-2.2618587580143013 20,-4.771967995487035 13.333333333333332,-4.00388824415515 6.666666666666666Z" transform="rotate(90)"/>
  <path d="M0 0L4.00388824415515 6.666666666666666L4.771967995487035 13.333333333333332L2.2618587580143013 20L3.1334639525739227 26.666666666666664L1.6126826433353658 33.333333333333336L0 40L-1.6126826433353658 33.333333333333336,-3.1334639525739227 26.666666666666664,-2.2618587580143013 20,-4.771967995487035 13.333333333333332,-4.00388824415515 6.666666666666666Z" transform="rotate(112.5)"/>
  <path d="M0 0L4.00388824415515 6.666666666666666L4.771967995487035 13.333333333333332L2.2618587580143013 20L3.1334639525739227 26.666666666666664L1.6126826433353658 33.333333333333336L0 40L-1.6126826433353658 33.333333333333336,-3.1334639525739227 26.666666666666664,-2.2618587580143013 20,-4.771967995487035 13.333333333333332,-4.00388824415515 6.666666666666666Z" transform="rotate(135)"/>
  <path d="M0 0L4.00388824415515 6.666666666666666L4.771967995487035 13.333333333333332L2.2618587580143013 20L3.1334639525739227 26.666666666666664L1.6126826433353658 33.333333333333336L0 40L-1.6126826433353658 33.333333333333336,-3.1334639525739227 26.666666666666664,-2.2618587580143013 20,-4.771967995487035 13.333333333333332,-4.00388824415515 6.666666666666666Z" transform="rotate(157.5)"/>
  <path d="M0 0L4.00388824415515 6.666666666666666L4.771967995487035 13.333333333333332L2.2618587580143013 20L3.1334639525739227 26.666666666666664L1.6126826433353658 33.333333333333336L0 40L-1.6126826433353658 33.333333333333336,-3.1334639525739227 26.666666666666664,-2.2618587580143013 20,-4.771967995487035 13.333333333333332,-4.00388824415515 6.666666666666666Z" transform="rotate(180)"/>
  <path d="M0 0L4.00388824415515 6.666666666666666L4.771967995487035 13.333333333333332L2.2618587580143013 20L3.1334639525739227 26.666666666666664L1.6126826433353658 33.333333333333336L0 40L-1.6126826433353658 33.333333333333336,-3.1334639525739227 26.666666666666664,-2.2618587580143013 20,-4.771967995487035 13.333333333333332,-4.00388824415515 6.666666666666666Z" transform="rotate(202.5)"/>
  <path d="M0 0L4.00388824415515 6.666666666666666L4.771967995487035 13.333333333333332L2.2618587580143013 20L3.1334639525739227 26.666666666666664L1.6126826433353658 33.333333333333336L0 40L-1.6126826433353658 33.333333333333336,-3.1334639525739227 26.666666666666664,-2.2618587580143013 20,-4.771967995487035 13.333333333333332,-4.00388824415515 6.666666666666666Z" transform="rotate(225)"/>
  <path d="M0 0L4.00388824415515 6.666666666666666L4.771967995487035 13.333333333333332L2.2618587580143013 20L3.1334639525739227 26.666666666666664L1.6126826433353658 33.333333333333336L0 40L-1.6126826433353658 33.333333333333336,-3.1334639525739227 26.666666666666664,-2.2618587580143013 20,-4.771967995487035 13.333333333333332,-4.00388824415515 6.666666666666666Z" transform="rotate(247.5)"/>
  <path d="M0 0L4.00388824415515 6.666666666666666L4.771967995487035 13.333333333333332L2.2618587580143013 20L3.1334639525739227 26.666666666666664L1.6126826433353658 33.333333333333336L0 40L-1.6126826433353658 33.333333333333336,-3.1334639525739227 26.666666666666664,-2.2618587580143013 20,-4.771967995487035 13.333333333333332,-4.00388824415515 6.666666666666666Z" transform="rotate(270)"/>
  <path d="M0 0L4.00388824415515 6.666666666666666L4.771967995487035 13.333333333333332L2.2618587580143013 20L3.1334639525739227 26.666666666666664L1.6126826433353658 33.333333333333336L0 40L-1.6126826433353658 33.333333333333336,-3.1334639525739227 26.666666666666664,-2.2618587580143013 20,-4.771967995487035 13.333333333333332,-4.00388824415515 6.666666666666666Z" transform="rotate(292.5)"/>
  <path d="M0 0L4.00388824415515 6.666666666666666L4.771967995487035 13.333333333333332L2.2618587580143013 20L3.1334639525739227 26.666666666666664L1.6126826433353658 33.333333333333336L0 40L-1.6126826433353658 33.333333333333336,-3.1334639525739227 26.666666666666664,-2.2618587580143013 20,-4.771967995487035 13.333333333333332,-4.00388824415515 6.666666666666666Z" transform="rotate(315)"/>
  <path d="M0 0L4.00388824415515 6.666666666666666L4.771967995487035 13.333333333333332L2.2618587580143013 20L3.1334639525739227 26.666666666666664L1.6126826433353658 33.333333333333336L0 40L-1.6126826433353658 33.333333333333336,-3.1334639525739227 26.666666666666664,-2.2618587580143013 20,-4.771967995487035 13.333333333333332,-4.00388824415515 6.666666666666666Z" transform="rotate(337.5)"/>
</svg>